<?xml version="1.0" standalone="no"?><!DOCTYPE svg PUBLIC "-//W3C//DTD SVG 1.1//EN" "http://www.w3.org/Graphics/SVG/1.1/DTD/svg11.dtd"><svg t="1765879116920" class="icon" viewBox="0 0 1024 1024" version="1.1" xmlns="http://www.w3.org/2000/svg" p-id="4832" xmlns:xlink="http://www.w3.org/1999/xlink" width="128" height="128"><path d="M890.8 321.9h-37.2c-1.2-33.6-28.9-60.6-62.8-60.6h-45.5c-34.6 0-62.8 28.2-62.8 62.8v88.7H338.4v-88.7c0-34-27.4-62.8-59.7-62.8h-45.5c-33.9 0-61.6 27-62.8 60.6h-37.3c-38 0-68.8 30.9-68.8 68.8v242.5c0 38 30.9 68.9 68.8 68.9l37.3-0.1c1.1 33.6 28.9 60.6 62.8 60.6h42.4c34 0 62.8-27.4 62.8-59.8v-91.7h344.2l-0.1 88.7c0 34.6 28.2 62.8 62.8 62.8h45.5c34.1 0 62.8-27.4 62.8-59.8v-0.8l37.2 0.1c38 0 68.9-30.9 68.9-68.9V390.8c0-38-30.9-68.9-68.9-68.9z m6.9 68.9v242.5c0 4.5-2.4 6.9-6.9 6.9h-37.2V383.9h37.2c4.6 0 6.9 2.4 6.9 6.9z m-106.1-64.5v371.4h-41V326.3h41zM682.5 477.8v71.4H338.4l0.3-71.4h343.8z m-406 90v129.9h-41.1V326.3h41.1v129.9c-2 6.2-3 12.8-3 19.4v72.7c-0.1 6.8 0.9 13.3 3 19.5zM170.4 383.9v256.2h-37.2c-4.5 0-6.9-2.4-6.9-6.9V390.8c0-4.5 2.4-6.9 6.9-6.9h37.2z" fill="#1296db" p-id="4833"></path></svg>