<?xml version="1.0" standalone="no"?><!DOCTYPE svg PUBLIC "-//W3C//DTD SVG 1.1//EN" "http://www.w3.org/Graphics/SVG/1.1/DTD/svg11.dtd"><svg t="1765880670695" class="icon" viewBox="0 0 1024 1024" version="1.1" xmlns="http://www.w3.org/2000/svg" p-id="79090" xmlns:xlink="http://www.w3.org/1999/xlink" width="128" height="128"><path d="M512 42.666667c282.752 0 512 95.530667 512 213.333333 0 113.322667-212.096 206.037333-480 212.906667v256.981333C717.568 731.946667 853.333333 786.688 853.333333 853.333333c0 70.698667-152.832 128-341.333333 128s-341.333333-57.301333-341.333333-128c0-66.645333 135.850667-121.386667 309.333333-127.445333V468.906667C212.138667 462.08 0 369.322667 0 256c0-117.802667 229.248-213.333333 512-213.333333z m0 746.666666c-84.48 0-162.986667 12.458667-218.88 33.408-24.32 9.130667-42.538667 19.242667-53.162667 28.672L237.781333 853.333333l2.133334 1.92c10.666667 9.386667 28.885333 19.541333 53.205333 28.672 55.893333 20.949333 134.4 33.408 218.88 33.408s162.986667-12.458667 218.88-33.408c24.32-9.130667 42.538667-19.242667 53.162667-28.672l2.133333-1.92-2.133333-1.92c-10.624-9.386667-28.842667-19.541333-53.162667-28.672-55.893333-20.949333-134.4-33.408-218.88-33.408z m0-682.666666C261.248 106.666667 64 188.842667 64 256S261.248 405.333333 512 405.333333 960 323.157333 960 256 762.752 106.666667 512 106.666667z" fill="#666666" p-id="79091"></path></svg>