<?xml version="1.0" standalone="no"?><!DOCTYPE svg PUBLIC "-//W3C//DTD SVG 1.1//EN" "http://www.w3.org/Graphics/SVG/1.1/DTD/svg11.dtd"><svg t="1765880610709" class="icon" viewBox="0 0 1024 1024" version="1.1" xmlns="http://www.w3.org/2000/svg" p-id="74532" xmlns:xlink="http://www.w3.org/1999/xlink" width="128" height="128"><path d="M210.944 562.176L220.16 461.312h584.704l9.216 100.864H210.944z m-66.56-159.744C89.088 402.432 44.032 357.376 44.032 302.08V222.208c0-55.296 45.056-100.352 100.352-100.352h735.232c55.296 0 100.352 45.056 100.352 100.352V302.08c0 55.296-45.056 100.352-100.352 100.352H144.384z m734.72-100.864V222.72H144.896v78.848h734.208z" fill="#333333" p-id="74533"></path><path d="M852.48 902.144c-25.6 0-48.128-19.968-50.176-46.08l-31.232-338.432-14.336-156.16h101.376l45.056 485.376c2.56 27.648-17.92 52.224-45.568 54.784-1.536 0.512-3.584 0.512-5.12 0.512z m-680.448 0h-5.12c-12.8-1.024-25.088-7.68-33.792-17.92-8.704-10.24-12.8-23.552-11.264-36.864l45.056-485.376h101.376l-14.336 156.16-31.232 338.432c-2.56 26.112-24.576 45.568-50.688 45.568z" fill="#333333" p-id="74534"></path></svg>