<?xml version="1.0" standalone="no"?><!DOCTYPE svg PUBLIC "-//W3C//DTD SVG 1.1//EN" "http://www.w3.org/Graphics/SVG/1.1/DTD/svg11.dtd"><svg t="1765880563903" class="icon" viewBox="0 0 1024 1024" version="1.1" xmlns="http://www.w3.org/2000/svg" p-id="71163" xmlns:xlink="http://www.w3.org/1999/xlink" width="128" height="128"><path d="M840.704 431.206h-12.39V253.44c0-56.627-46.08-102.707-102.708-102.707H298.598c-56.627 0-102.81 46.08-102.912 102.707v177.766h-12.39c-41.78 0.103-75.776 34.202-75.878 75.879v239.309c0 29.696 24.166 53.76 53.76 53.76h34.508v73.113h56.32v-73.113h519.988v73.113h56.32v-73.113h34.508c29.696 0 53.76-24.167 53.76-53.76v-239.31c0.103-41.88-33.996-75.878-75.878-75.878z m-68.71 0h-3.175c-41.881 0-75.878 34.1-75.878 75.879v64H331.264v-64c0-41.882-34.1-75.879-75.878-75.879h-3.38V253.44c0.103-25.6 20.992-46.49 46.592-46.49h427.008c12.186 0 24.167 4.916 32.768 13.62 8.807 8.806 13.62 20.48 13.62 32.87v177.766z m-487.22 186.368c6.35 6.35 14.848 9.83 23.86 9.83H715.57c18.432 0 33.587-14.95 33.69-33.484v-86.835a19.444 19.444 0 0 1 5.734-13.824 19.444 19.444 0 0 1 13.824-5.735h71.885a19.444 19.444 0 0 1 13.824 5.735 19.444 19.444 0 0 1 5.734 13.824v236.749H163.738V507.187c0.102-10.752 8.908-19.558 19.558-19.66h71.987c10.752 0.102 19.559 8.908 19.661 19.558v86.63c0 9.011 3.482 17.51 9.83 23.86z" p-id="71164"></path></svg>