<?xml version="1.0" standalone="no"?><!DOCTYPE svg PUBLIC "-//W3C//DTD SVG 1.1//EN" "http://www.w3.org/Graphics/SVG/1.1/DTD/svg11.dtd"><svg t="1765880658669" class="icon" viewBox="0 0 1414 1024" version="1.1" xmlns="http://www.w3.org/2000/svg" p-id="78922" xmlns:xlink="http://www.w3.org/1999/xlink" width="176.75" height="128"><path d="M1317.692952 0H96.402286A96.207238 96.207238 0 0 0 0 96.01219c0 53.00419 43.154286 95.963429 96.402286 95.963429v800.036571c0 17.65181 14.384762 31.98781 32.182857 31.98781 17.700571 0 32.085333-14.336 32.085333-31.98781v-192.02438h1092.754286v192.02438c0 17.65181 14.384762 31.98781 32.134095 31.98781 17.749333 0 32.134095-14.336 32.134095-31.98781V191.975619A96.207238 96.207238 0 0 0 1414.095238 96.060952 96.207238 96.207238 0 0 0 1317.692952 0zM160.670476 192.024381h385.706667v543.987809h-385.706667V192.024381z m449.974857 543.987809v-256h642.779429v256H610.645333zM1253.424762 415.939048H610.645333V191.975619h642.779429v224.012191z m64.26819-287.98781H96.402286a32.085333 32.085333 0 0 1-32.134096-31.987809c0-17.700571 14.384762-32.036571 32.182858-32.036572h1221.241904a32.085333 32.085333 0 0 1 0 64.024381z" fill="#2C2C2C" p-id="78923"></path><path d="M859.428571 308.809143h182.857143c16.822857 0 30.47619-14.531048 30.476191-32.475429 0-17.993143-13.653333-32.52419-30.476191-32.52419h-182.857143c-16.822857 0-30.47619 14.531048-30.47619 32.52419 0 17.944381 13.653333 32.475429 30.47619 32.475429z m182.857143 260.096h-182.857143c-16.822857 0-30.47619 14.531048-30.47619 32.475428 0 17.993143 13.653333 32.52419 30.47619 32.524191h182.857143c16.822857 0 30.47619-14.531048 30.476191-32.524191 0-17.944381-13.653333-32.475429-30.476191-32.475428z" fill="#2C2C2C" p-id="78924"></path></svg>