<?xml version="1.0" standalone="no"?><!DOCTYPE svg PUBLIC "-//W3C//DTD SVG 1.1//EN" "http://www.w3.org/Graphics/SVG/1.1/DTD/svg11.dtd"><svg t="1765880645484" class="icon" viewBox="0 0 1744 1024" version="1.1" xmlns="http://www.w3.org/2000/svg" p-id="77482" xmlns:xlink="http://www.w3.org/1999/xlink" width="218" height="128"><path d="M1698.436741 0H46.155852C20.29037 0 0 19.64563 0 44.638815c0 25.031111 20.29037 44.638815 46.155852 44.638815h94.132148v890.083555c0 25.031111 20.328296 44.638815 46.155852 44.638815 25.865481 0 46.155852-19.64563 46.155852-44.638815V415.137185h1284.93037v563.313778c0 25.031111 20.29037 44.638815 46.155852 44.638815 25.827556 0 46.155852-19.607704 46.155852-44.638815V89.27763h88.594963c25.865481 0 46.155852-19.64563 46.155852-44.638815C1744.592593 19.607704 1724.302222 0 1698.436741 0zM232.599704 89.27763h588.003555v237.492148H232.599704V89.27763z m1284.93037 236.581926H913.825185V89.27763h603.704889v236.581926zM593.540741 180.337778h-187.392c-15.701333 0-27.685926 11.605333-27.685926 26.775703 0 15.17037 11.984593 26.775704 27.685926 26.775704h187.354074c15.701333 0 27.685926-11.605333 27.685926-26.775704 0-15.17037-12.894815-26.775704-27.685926-26.775703zM1121.46963 233.889185h187.392c15.701333 0 27.685926-11.605333 27.685926-26.775704 0-15.17037-11.984593-26.775704-27.685926-26.775703h-187.354074c-15.701333 0-27.685926 11.605333-27.685926 26.775703 0 15.17037 12.894815 26.775704 27.685926 26.775704z" fill="#333333" p-id="77483"></path></svg>