<?xml version="1.0" standalone="no"?><!DOCTYPE svg PUBLIC "-//W3C//DTD SVG 1.1//EN" "http://www.w3.org/Graphics/SVG/1.1/DTD/svg11.dtd"><svg t="1765879507448" class="icon" viewBox="0 0 1024 1024" version="1.1" xmlns="http://www.w3.org/2000/svg" p-id="26483" xmlns:xlink="http://www.w3.org/1999/xlink" width="128" height="128"><path d="M437.992727 882.269091l32.814546-32.814546v-0.232727l-6.283637 6.516364-26.530909 26.530909zM437.992727 816.407273l-14.429091 14.429091 14.429091-14.429091zM437.992727 882.269091l26.530909-26.530909-26.530909 26.530909z" fill="#1B1B5C" p-id="26484"></path><path d="M874.123636 149.876364a162.909091 162.909091 0 0 0-212.712727-15.127273 46.545455 46.545455 0 0 1 0 64.465454l-9.774545 8.378182L816.407273 372.363636l8.145454-8.145454a46.545455 46.545455 0 0 1 32.814546-13.730909 46.545455 46.545455 0 0 1 31.418182 12.567272 162.909091 162.909091 0 0 0-14.661819-213.178181zM783.592727 404.945455l-164.538182-164.538182-8.145454 8.145454a46.545455 46.545455 0 0 1-32.814546 13.730909 46.545455 46.545455 0 0 1-32.814545-13.730909L248.785455 544.814545a46.545455 46.545455 0 0 1 0 65.861819l-8.145455 8.145454 164.538182 164.538182 8.145454-8.145455a46.545455 46.545455 0 0 1 65.861819 0l296.02909-296.02909a46.545455 46.545455 0 0 1 0-65.861819zM199.214545 660.014545a46.545455 46.545455 0 0 1-32.814545 13.73091 46.545455 46.545455 0 0 1-31.418182-12.567273 162.909091 162.909091 0 0 0 227.84 227.84 46.545455 46.545455 0 0 1 0-64.465455l8.145455-8.145454L207.592727 651.636364z" fill="#F7E579" p-id="26485"></path><path d="M922.530909 395.636364A209.454545 209.454545 0 0 0 628.363636 101.469091a46.545455 46.545455 0 0 0-32.814545-13.730909 46.545455 46.545455 0 0 0-32.814546 13.730909L512 149.876364a46.545455 46.545455 0 0 0 0 65.861818L215.738182 512a46.545455 46.545455 0 0 0-65.861818 0l-49.338182 49.338182a46.545455 46.545455 0 0 0 0 65.861818A209.454545 209.454545 0 0 0 395.636364 922.298182a46.545455 46.545455 0 0 0 32.814545 13.730909 46.545455 46.545455 0 0 0 32.814546-13.730909L512 874.123636a46.545455 46.545455 0 0 0 0-65.861818L808.261818 512a46.545455 46.545455 0 0 0 65.861818 0l49.338182-49.338182a46.545455 46.545455 0 0 0 0-65.861818z m-147.083636 83.316363L479.185455 775.214545a46.545455 46.545455 0 0 0-65.861819 0l-8.145454 8.145455-164.770909-164.305455 8.145454-8.145454a46.545455 46.545455 0 0 0 0-65.861818l296.261818-296.261818a46.545455 46.545455 0 0 0 32.814546 13.730909 46.545455 46.545455 0 0 0 32.814545-13.730909l8.145455-8.145455 164.538182 164.538182-8.145455 8.145454a46.545455 46.545455 0 0 0 0.232727 65.861819zM363.985455 824.552727a46.545455 46.545455 0 0 0 0 64.465455 162.909091 162.909091 0 0 1-229.003637-227.84 46.545455 46.545455 0 0 0 31.418182 12.567273 46.545455 46.545455 0 0 0 32.814545-13.73091l8.378182-8.378181L372.363636 816.407273zM651.636364 207.592727l8.145454-8.145454a46.545455 46.545455 0 0 0 0-64.465455 162.909091 162.909091 0 0 1 227.84 227.84 46.545455 46.545455 0 0 0-30.021818-13.730909 46.545455 46.545455 0 0 0-32.814545 13.730909l-8.145455 8.145455z m-57.250909-74.007272l16.523636 16.523636 16.523636 16.523636-8.145454 8.145455-33.28 32.814545-8.145455 8.145455-16.523636-16.523637-16.523637-16.523636M135.214545 592.523636l6.516364-6.516363 32.814546-32.814546 8.145454-8.145454 16.523636 16.523636 16.523637 16.523636-8.145455 8.145455L174.545455 619.054545l-8.145455 9.309091-16.523636-16.523636-16.523637-16.523636z m335.592728 256l-32.814546 32.814546-8.145454 8.145454-16.523637-16.523636-16.523636-16.523636 8.145455-8.145455 18.385454-18.385454 14.429091-14.429091 8.145455-8.145455 16.523636 16.523636 16.523636 16.523637-8.145454 8.145454z m370.269091-369.338181l-16.523637-16.523637-16.523636-16.523636 8.145454-8.145455 33.28-33.047272 6.981819-6.981819 1.163636-1.163636 16.523636 16.523636 16.523637 16.523637z" fill="#1B1B5C" p-id="26486"></path></svg>