<?xml version="1.0" standalone="no"?><!DOCTYPE svg PUBLIC "-//W3C//DTD SVG 1.1//EN" "http://www.w3.org/Graphics/SVG/1.1/DTD/svg11.dtd"><svg t="1765880595846" class="icon" viewBox="0 0 1024 1024" version="1.1" xmlns="http://www.w3.org/2000/svg" p-id="74368" xmlns:xlink="http://www.w3.org/1999/xlink" width="128" height="128"><path d="M851.411627 578.194773c7.051947 0.16384 14.107307 0.331093 21.159253 0.494933 4.00384-88.285867 8.004267-57.56928 12.059307-147.032747-18.13504 0-29.51168 0-45.653333 0C843.209387 522.079573 847.312213 490.642773 851.411627 578.194773z" p-id="74369"></path><path d="M961.73056 353.498453c-146.08384 0-762.402133 0-908.48256 0-1.099093 10.625707 9.611947 291.099307 10.082987 292.017493 5.393067 10.356053 10.881707 20.66432 16.35328 30.979413 4.79232-9.844053 12.2368-19.27168 13.820587-29.597013 3.19488-20.872533 15.506773-216.108373 16.489813-228.287147 12.765867-0.723627 782.226773-0.723627 794.996053 0 0.979627 12.178773 13.294933 207.414613 16.489813 228.287147 1.580373 10.325333 9.03168 19.75296 13.817173 29.597013 5.474987-10.315093 10.960213-20.62336 16.35328-30.979413C952.1152 644.59776 962.833067 364.12416 961.73056 353.498453z" p-id="74370"></path><path d="M142.40768 578.686293c7.051947-0.16384 14.107307-0.331093 21.162667-0.494933 4.096-87.548587 8.198827-56.111787 12.434773-146.541227-16.141653 0-27.521707 0-45.653333 0C134.403413 521.117013 138.40384 490.400427 142.40768 578.686293z" p-id="74371"></path><path d="M507.48416 340.933973c151.98208 0.02048 303.977813 0.139947 455.95648-0.457387 9.427627-0.034133 18.824533-6.662827 28.23168-10.222933-5.021013-10.123947-7.461547-24.87296-15.588693-29.39904-16.704853-9.28768-36.430507-18.302293-54.941013-18.367147-132.28032-0.498347-264.553813-0.72704-396.83072-0.785067l0-0.03072c-5.608107 0-11.2128 0.013653-16.831147 0.013653-5.608107 0-11.216213-0.013653-16.82432-0.013653l0 0.03072c-132.27008 0.058027-264.5504 0.28672-396.823893 0.785067-18.510507 0.064853-38.239573 9.079467-54.9376 18.367147-8.133973 4.529493-10.574507 19.275093-15.592107 29.39904 9.407147 3.560107 18.807467 10.185387 28.235093 10.222933C203.516587 341.07392 355.505493 340.954453 507.48416 340.933973z" p-id="74372"></path></svg>