<?xml version="1.0" standalone="no"?><!DOCTYPE svg PUBLIC "-//W3C//DTD SVG 1.1//EN" "http://www.w3.org/Graphics/SVG/1.1/DTD/svg11.dtd"><svg t="1765880553373" class="icon" viewBox="0 0 1832 1024" version="1.1" xmlns="http://www.w3.org/2000/svg" p-id="71000" xmlns:xlink="http://www.w3.org/1999/xlink" width="229" height="128"><path d="M1475.637895 1024H356.783158a134.736842 134.736842 0 0 1-134.736842-134.736842v-161.684211a134.736842 134.736842 0 0 1 134.736842-134.736842h1118.854737a134.736842 134.736842 0 0 1 134.736842 134.736842v161.684211a134.736842 134.736842 0 0 1-134.736842 134.736842zM356.783158 646.736842a80.842105 80.842105 0 0 0-80.842105 80.842105v161.684211a80.842105 80.842105 0 0 0 80.842105 80.842105h1118.854737a80.842105 80.842105 0 0 0 80.842105-80.842105v-161.684211a80.842105 80.842105 0 0 0-80.842105-80.842105z" fill="#4A4A4A" p-id="71001"></path><path d="M1475.637895 646.736842H356.783158a134.736842 134.736842 0 0 1-134.736842-134.736842v-377.263158A134.736842 134.736842 0 0 1 356.783158 0h1118.854737a134.736842 134.736842 0 0 1 134.736842 134.736842v377.263158a134.736842 134.736842 0 0 1-134.736842 134.736842zM356.783158 53.894737a80.842105 80.842105 0 0 0-80.842105 80.842105v377.263158a80.842105 80.842105 0 0 0 80.842105 80.842105h1118.854737a80.842105 80.842105 0 0 0 80.842105-80.842105v-377.263158a80.842105 80.842105 0 0 0-80.842105-80.842105z" fill="#4A4A4A" p-id="71002"></path><path d="M1697.684211 1024h-8.084211a134.736842 134.736842 0 0 1-134.736842-134.736842v-485.052632a134.736842 134.736842 0 0 1 134.736842-134.736842h8.084211A134.736842 134.736842 0 0 1 1832.421053 404.210526v485.052632a134.736842 134.736842 0 0 1-134.736842 134.736842z m-8.084211-700.631579a80.842105 80.842105 0 0 0-80.842105 80.842105v485.052632a80.842105 80.842105 0 0 0 80.842105 80.842105h8.084211a80.842105 80.842105 0 0 0 80.842105-80.842105v-485.052632A80.842105 80.842105 0 0 0 1697.684211 323.368421zM142.821053 1024H134.736842A134.736842 134.736842 0 0 1 0 889.263158v-485.052632A134.736842 134.736842 0 0 1 134.736842 269.473684h8.084211a134.736842 134.736842 0 0 1 134.736842 134.736842v485.052632a134.736842 134.736842 0 0 1-134.736842 134.736842zM134.736842 323.368421A80.842105 80.842105 0 0 0 53.894737 404.210526v485.052632A80.842105 80.842105 0 0 0 134.736842 970.105263h8.084211a80.842105 80.842105 0 0 0 80.842105-80.842105v-485.052632A80.842105 80.842105 0 0 0 142.821053 323.368421zM889.263158 0h53.894737v646.736842h-53.894737z" fill="#4A4A4A" p-id="71003"></path></svg>