<?xml version="1.0" standalone="no"?><!DOCTYPE svg PUBLIC "-//W3C//DTD SVG 1.1//EN" "http://www.w3.org/Graphics/SVG/1.1/DTD/svg11.dtd"><svg t="1765880451047" class="icon" viewBox="0 0 1024 1024" version="1.1" xmlns="http://www.w3.org/2000/svg" p-id="50536" xmlns:xlink="http://www.w3.org/1999/xlink" width="128" height="128"><path d="M230.4 0h653.7088C911.8848 0 934.4 22.912 934.4 51.2v921.6c0 28.288-22.5152 51.2-50.2912 51.2H230.4V0zM128 0h51.2v1024h-51.2a51.2 51.2 0 0 1-51.2-51.2V51.2a51.2 51.2 0 0 1 51.2-51.2z" fill="#254CA7" p-id="50537"></path><path d="M588.8 0h204.8v209.4592c0 11.5584-9.1648 20.9408-20.48 20.9408l-82.5344-31.424L609.28 230.4c-11.3152 0-20.48-9.3824-20.48-20.9408V0z" fill="#EBBA50" p-id="50538"></path></svg>