<?xml version="1.0" standalone="no"?><!DOCTYPE svg PUBLIC "-//W3C//DTD SVG 1.1//EN" "http://www.w3.org/Graphics/SVG/1.1/DTD/svg11.dtd"><svg t="1765880443917" class="icon" viewBox="0 0 1024 1024" version="1.1" xmlns="http://www.w3.org/2000/svg" p-id="50369" xmlns:xlink="http://www.w3.org/1999/xlink" width="128" height="128"><path d="M67.2 168.3v643c64.4-40.6 138.9-62.3 215-62.8 75.7 0.6 149.8 22.3 213.9 62.8V177.1c-61.9-46.2-136.7-71.8-213.9-73.2-76.3 0.5-150.9 22.8-215 64.4z m460.3 0v643c64.3-40.6 138.8-62.4 214.8-62.7 76 0.4 150.4 22.1 214.6 62.8V177.1c-62-46.4-137.1-72.1-214.6-73.3-76.2 0.5-150.7 22.9-214.6 64.5h-0.2zM4.9 244h28.8v613.8h402.8V889H590v-31.2h400.5V244h28.8v645h-387l1.8 31.2h-231V889H4.9V244z" fill="#F04136" p-id="50370"></path></svg>