<?xml version="1.0" standalone="no"?><!DOCTYPE svg PUBLIC "-//W3C//DTD SVG 1.1//EN" "http://www.w3.org/Graphics/SVG/1.1/DTD/svg11.dtd"><svg t="1765879993250" class="icon" viewBox="0 0 1024 1024" version="1.1" xmlns="http://www.w3.org/2000/svg" p-id="64155" xmlns:xlink="http://www.w3.org/1999/xlink" width="128" height="128"><path d="M440.8 356v-1.6h-43.2l-5.6 26.4h49.6c-0.8-0.8-0.8-24.8-0.8-24.8z m295.2-32H618.4c8 41.6 27.2 78.4 56.8 111.2 32.8-33.6 53.6-70.4 60.8-111.2z" p-id="64156" fill="#d81e06"></path><path d="M920.8 954.4c-4.8-4.8-11.2-7.2-18.4-7.2H212c-32 0-58.4-26.4-58.4-58.4v-6.4c1.6-46.4 15.2-50.4 34.4-50.4h678.4c20.8 0 56-35.2 56-56V98.4c0-32-39.2-71.2-71.2-71.2h-640c-60 0-109.6 48.8-109.6 109.6v752c0 60 48.8 109.6 109.6 109.6h690.4c14.4 0 25.6-11.2 25.6-25.6 0.8-7.2-1.6-13.6-6.4-18.4zM513.6 302.4c0.8-10.4 8-17.6 18.4-18.4h116.8c-2.4-4-4.8-8-6.4-10.4-6.4-12.8-3.2-24 7.2-30.4l0.8-0.8h0.8c2.4-0.8 4.8-0.8 7.2-0.8 5.6 0 13.6 2.4 20 12.8v1.6c0 0.8 1.6 4.8 7.2 13.6 3.2 6.4 6.4 11.2 8 15.2h121.6c10.4 1.6 16.8 8 17.6 18.4v1.6c-1.6 15.2-11.2 19.2-16.8 20h-40c-10.4 52-34.4 98.4-71.2 139.2 32.8 25.6 71.2 44 115.2 56 6.4 2.4 14.4 8.8 9.6 26.4v1.6c-5.6 9.6-12.8 12-17.6 12-2.4 0-4.8-0.8-7.2-1.6-44.8-14.4-88.8-37.6-130.4-68.8-42.4 29.6-88 51.2-136 64-2.4 0.8-4 0.8-5.6 0.8-4.8 0-13.6-1.6-17.6-13.6-3.2-17.6 5.6-24 11.2-25.6 48.8-14.4 88-32 116.8-52.8-34.4-40.8-57.6-87.2-68-137.6h-43.2c-11.2-0.8-18.4-8-19.2-20l0.8-2.4z m-208.8-24.8c0.8-11.2 8-17.6 17.6-17.6H480c10.4 0 16.8 6.4 17.6 17.6 0 12-5.6 18.4-16 20h-76l-4 20H448c8.8 0 16 2.4 20.8 8 5.6 5.6 8 14.4 7.2 25.6v28.8h20.8c10.4 0 16.8 6.4 16.8 18.4 0 17.6-12.8 19.2-16.8 19.2H309.6c-12 0-19.2-6.4-20.8-18.4v-1.6c0.8-11.2 8.8-17.6 20.8-17.6h44l4.8-26.4h-28.8c-10.4 0-16.8-6.4-17.6-17.6v-1.6c0.8-11.2 8-17.6 17.6-17.6h36.8l4-20h-46.4c-4.8 0-16-1.6-17.6-18.4l-1.6-0.8z m-76-16c5.6-4.8 9.6-6.4 14.4-6.4 4 0 8 1.6 12 4 16.8 16 31.2 30.4 44.8 45.6 6.4 10.4 5.6 20-3.2 27.2-4 3.2-8 4.8-12.8 4.8-4.8 0-9.6-2.4-14.4-6.4-14.4-17.6-28-32-40.8-43.2-7.2-7.2-8-16.8 0-25.6z m-15.2 91.2h40.8c7.2 0 13.6 2.4 17.6 6.4 4.8 4.8 6.4 12 5.6 20.8v106.4c4-6.4 8-13.6 12-21.6 5.6-10.4 12.8-12 18.4-12 2.4 0 4.8 0 7.2 1.6h0.8l1.6 0.8c0.8-8 3.2-13.6 7.2-18.4 5.6-6.4 14.4-8.8 26.4-8.8h105.6c10.4 0 19.2 3.2 24.8 8.8 6.4 6.4 8.8 16 8.8 28v50.4c0.8 10.4-1.6 19.2-7.2 24.8-5.6 6.4-14.4 9.6-25.6 9.6H350.4c-11.2 0-19.2-3.2-24.8-8.8-5.6-5.6-8-14.4-8-25.6v-20c-9.6 18.4-20 32-31.2 41.6-8.8 7.2-16.8 11.2-24 11.2-2.4 0-4.8 0-7.2-1.6-9.6-4.8-14.4-15.2-14.4-31.2V393.6v-2.4h-27.2c-4.8 0-16-1.6-17.6-18.4 1.6-18.4 12.8-20 17.6-20z" p-id="64157" fill="#d81e06"></path><path d="M357.6 512h93.6v-44c0-2.4-0.8-4-0.8-4H356l0.8 46.4c-0.8 0.8-0.8 1.6 0.8 1.6z" p-id="64158" fill="#d81e06"></path></svg>