<?xml version="1.0" standalone="no"?><!DOCTYPE svg PUBLIC "-//W3C//DTD SVG 1.1//EN" "http://www.w3.org/Graphics/SVG/1.1/DTD/svg11.dtd"><svg t="1765880317695" class="icon" viewBox="0 0 1024 1024" version="1.1" xmlns="http://www.w3.org/2000/svg" p-id="36780" xmlns:xlink="http://www.w3.org/1999/xlink" width="128" height="128"><path d="M175.104 555.776H96.6144a15.6672 15.6672 0 1 1 0-31.3344H175.104a15.6672 15.6672 0 1 1 0 31.3344z" fill="#6E6E96" p-id="36781"></path><path d="M75.1104 799.488V197.8368c0-43.3152 21.5552-49.0496 47.9232-49.0496h777.7792c26.368 0 47.9232 5.7344 47.9232 49.0496v601.6512" fill="#B9BCC9" p-id="36782"></path><path d="M900.864 147.7632H123.0848c-26.368 0-47.9232 5.6832-47.9232 49.0496v39.1168c0-43.3152 21.5552-49.0496 47.9232-49.0496h777.7792c26.368 0 47.9232 5.7344 47.9232 49.0496v-39.1168c0-43.3152-21.6064-49.0496-47.9744-49.0496z" fill="#FFFFFF" opacity=".15" p-id="36783"></path><path d="M958.464 794.3168h-31.2832V197.7856c0-30.3616-9.3696-33.3824-32.3072-33.3824H129.0752c-12.3904 0-19.8656 1.536-24.1664 4.9152-5.376 4.2496-8.1408 13.824-8.1408 28.4672v596.48h-31.2832V197.7856C65.4848 133.12 111.6672 133.12 129.0752 133.12h765.7984c17.408 0 63.5904 0 63.5904 64.6656v596.48z" fill="#6E6E96" p-id="36784"></path><path d="M967.8336 781.7216h-341.2992v32.8704H385.5872v-32.8704H58.8288c-15.0528 0-27.392 12.3392-27.392 27.392v71.168h963.7376v-71.168c0-15.0528-12.288-27.392-27.392-27.392z" fill="#B9BCC9" p-id="36785"></path><path d="M967.8336 769.9968h-341.2992v32.8704H385.5872v-32.8704H58.8288c-15.0528 0-27.392 12.3392-27.392 27.392v43.008c0-15.0528 12.288-27.392 27.392-27.392H385.536v32.8704h240.9472v-32.8704h341.2992c15.0528 0 27.392 12.3392 27.392 27.392v-43.008c0-15.0528-12.3392-27.392-27.392-27.392z" fill="#FFFFFF" opacity=".15" p-id="36786"></path><path d="M147.968 220.2112h723.712v488.7552H147.968V220.2112z" fill="#8CBDF2" p-id="36787"></path><path d="M380.9792 686.0288l477.5936-447.4368v131.328L541.7984 686.08H380.9792z" fill="#DEEFFF" opacity=".31" p-id="36788"></path><path d="M858.5728 369.92L541.7984 686.08h316.7744V369.92z" fill="#FFFFFF" opacity=".31" p-id="36789"></path><path d="M871.68 724.6336H147.968a15.6672 15.6672 0 0 1-15.6672-15.6672V220.2112a15.6672 15.6672 0 0 1 15.6672-15.6672h723.712a15.6672 15.6672 0 0 1 15.6672 15.6672v488.7552a15.6672 15.6672 0 0 1-15.6672 15.6672z m-708.096-31.2832h692.4288V235.8784H163.584v457.472z" fill="#6E6E96" p-id="36790"></path><path d="M147.968 220.2112h710.6048v51.2512H147.968V220.2112zM31.4368 846.1312h963.7376v34.1504H31.4368v-34.1504z" fill="#6E6E96" opacity=".15" p-id="36791"></path><path d="M995.1744 895.9488H31.4368a15.6672 15.6672 0 0 1-15.6672-15.6672v-71.168c0-23.7056 19.3024-43.008 43.008-43.008h326.7072a15.6672 15.6672 0 0 1 15.6672 15.6672v17.2032h209.664v-17.2032a15.6672 15.6672 0 0 1 15.6672-15.6672h341.2992c11.4688 0 22.272 4.5056 30.4128 12.6464a42.62912 42.62912 0 0 1 12.5952 30.4128v71.168a15.6672 15.6672 0 0 1-15.6672 15.6672zM47.104 864.6656h932.4544v-55.552c0-3.1232-1.2288-6.0928-3.4304-8.2944-2.2016-2.2016-5.1712-3.4816-8.2944-3.4816h-325.6832v17.2032a15.6672 15.6672 0 0 1-15.6672 15.6672H385.536a15.6672 15.6672 0 0 1-15.6672-15.6672v-17.2032H58.8288c-6.4512 0-11.7248 5.2736-11.7248 11.7248v55.552z" fill="#6E6E96" p-id="36792"></path></svg>