<?xml version="1.0" standalone="no"?><!DOCTYPE svg PUBLIC "-//W3C//DTD SVG 1.1//EN" "http://www.w3.org/Graphics/SVG/1.1/DTD/svg11.dtd"><svg t="1765880091366" class="icon" viewBox="0 0 1024 1024" version="1.1" xmlns="http://www.w3.org/2000/svg" p-id="11504" xmlns:xlink="http://www.w3.org/1999/xlink" width="128" height="128"><path d="M359.894033 460.497836v51.988984c0 5.12 0.637902 8.67882 1.913705 10.659672a10.575738 10.575738 0 0 0 5.338229 4.263869c2.26623 0.839344 5.825049 1.275803 10.642885 1.275803h156.000525c5.12 0 10.441443 1.846557 15.981115 5.539672 5.539672 3.693115 8.897049 9.803541 10.02177 18.331279 1.141508 8.527738-1.494033 14.990689-7.889836 19.388852-6.379016 4.414951-12.422295 6.614033-18.113049 6.614033H358.61823c-6.261508 0-13.563803-0.839344-21.957246-2.551607s-15.124984-5.405377-20.244984-11.079344c-5.12-5.707541-8.175213-11.448656-9.165639-17.273705-0.990426-5.825049-1.494033-14.000262-1.494033-24.508852V349.67082c0-8.813115 0.721836-16.484721 2.131934-22.998033 1.426885-6.546885 4.482098-11.952262 9.16564-16.216131 4.700328-4.263869 10.575738-7.520525 17.693377-9.803541 7.100852-2.26623 14.772459-3.407738 23.014819-3.407738h171.343738c5.690754 0 11.230426 2.131934 16.619016 6.395803 5.405377 4.263869 8.175213 10.793967 8.309509 19.607082 0.151082 8.813115-2.904131 14.923541-9.16564 18.331279-6.244721 3.407738-11.499016 5.103213-15.762885 5.103213h-151.316984c-6.815475 0-11.146492 0.788984-12.993049 2.350164a13.261639 13.261639 0 0 0-3.844196 4.901771c-0.587541 1.426885-0.923279 4.028852-1.024 7.822688l-0.033574 49.286295h103.575082c5.405377 0 11.079344 1.77941 17.055475 5.33823 5.959344 3.542033 9.014557 9.736393 9.148853 18.532721 0.151082 8.813115-2.769836 15.276066-8.729181 19.405639-5.976131 4.112787-11.80118 6.177574-17.475147 6.177574h-103.575082z m254.321311-49.873836c5.707541-4.532459 10.45823-7.956984 14.28564-10.24 3.844197-2.26623 9.736393-4.683541 17.693377-7.235148a100.435934 100.435934 0 0 1 23.014819-4.700327c6.832262-0.26859 15.494295 0.721836 26.019672 2.988065 10.491803 2.283016 19.590295 5.908984 27.261902 10.877902 7.671607 4.968918 13.84918 10.72682 18.549508 17.256918 4.683541 6.546885 7.721967 12.371934 9.16564 17.475147 1.410098 5.12 2.115148 11.650098 2.115147 19.607082v104.414427c0 3.693115-1.124721 7.621246-3.407738 11.750819-2.26623 4.112787-6.882623 6.513311-13.84918 7.218361-6.966557 0.721836-12.288-1.057574-15.981115-5.321443-3.693115-4.263869-5.539672-8.662033-5.539672-13.211278v-95.903476c0-8.510951-1.208656-15.695738-3.625967-21.520787-2.417311-5.825049-6.882623-10.793967-13.429508-14.923541-6.530098-4.112787-14.772459-6.177574-24.710295-6.177573-11.650098 0.570754-21.957246 3.491672-30.904656 8.72918-8.94741 5.271082-15.561443 11.096131-19.808525 17.491934-4.280656 6.379016-6.41259 12.573377-6.41259 18.532722l-0.419672 95.483803c-0.285377 3.693115-1.77941 7.520525-4.482098 11.499016-2.685902 3.978492-7.453377 6.043279-14.268853 6.194361-6.832262 0.134295-11.935475-1.77941-15.343213-5.757902-3.407738-3.978492-5.12-7.956984-5.12-11.935475v-155.144394c0-3.978492 1.628328-7.822689 4.901771-11.515803 3.273443-3.693115 7.889836-5.60682 13.84918-5.757901 5.976131-0.134295 10.877902 1.645115 14.705312 5.338229 3.844197 3.693115 5.757902 7.671607 5.757901 11.918689v2.568393z" fill="#725DDF" p-id="11505"></path><path d="M823.262426 98.018623a100.721311 100.721311 0 0 1 100.721312 100.721311v654.688525a100.721311 100.721311 0 0 1-100.721312 100.721311h-587.540983a100.721311 100.721311 0 0 1-100.721312-100.721311v-654.688525a100.721311 100.721311 0 0 1 100.721312-100.721311h587.540983z m0 67.147541h-587.540983a33.57377 33.57377 0 0 0-33.573771 33.57377v654.688525a33.57377 33.57377 0 0 0 33.573771 33.573771h587.540983a33.57377 33.57377 0 0 0 33.573771-33.573771v-654.688525a33.57377 33.57377 0 0 0-33.573771-33.57377z" fill="#2F2F2F" p-id="11506"></path><path d="M345.89377 753.328262h369.311476a33.57377 33.57377 0 1 0 0-67.147541h-369.311476a33.57377 33.57377 0 1 0 0 67.147541z" fill="#725DDF" p-id="11507"></path></svg>