<?xml version="1.0" standalone="no"?><!DOCTYPE svg PUBLIC "-//W3C//DTD SVG 1.1//EN" "http://www.w3.org/Graphics/SVG/1.1/DTD/svg11.dtd"><svg t="1765879819035" class="icon" viewBox="0 0 1024 1024" version="1.1" xmlns="http://www.w3.org/2000/svg" p-id="50181" xmlns:xlink="http://www.w3.org/1999/xlink" width="128" height="128"><path d="M941.2352 152.533333c-13.4144 20.4288-21.1968 50.926933-15.9232 74.862934 2.312533 10.478933 16.093867 24.337067 16.1024 34.602666 0 12.125867-14.020267 21.239467-16.213333 28.859734-4.394667 15.2576 2.005333 37.358933-1.723734 54.408533-3.643733 16.657067-23.918933 26.385067-26.4448 35.3024-2.4832 8.746667 0.674133 18.619733-0.682666 27.383467-5.282133 34.116267-39.509333 31.607467-47.837867 47.5904-4.420267 8.482133-2.7136 19.234133-9.0624 30.225066-10.914133 18.909867-60.919467 54.254933-81.553067 58.7776-14.250667 3.1232-29.533867-0.776533-43.861333 1.041067-10.9056 1.3824-52.027733 11.4688-58.2144 17.553067-4.667733 4.590933-3.933867 22.741333-11.921067 30.190933-7.620267 7.099733-33.237333 15.581867-43.0848 24.4992l-43.938133-16.494933c-13.883733 1.066667-33.937067 20.1216-45.8752 21.922133-4.864 0.733867-13.380267-4.5568-21.393067-5.0944-59.460267-3.9424-52.369067 57.582933-92.561066 70.715733-26.3424 8.6016-50.551467-9.2928-67.797334-0.418133-15.8976 8.174933-43.682133 46.916267-50.3552 64.6912-3.541333-2.491733-8.661333-2.286933-10.5216-9.070933l-0.6912-52.6848-39.304533-5.6064c-8.064-14.4896-16.580267-20.778667-10.513067-41.412267 2.909867-9.890133 29.2864-26.308267 35.729067-37.2224 8.2944-14.0288 9.6512-35.848533 20.471467-52.497067 6.0416-9.301333 15.547733-14.890667 20.949333-23.953066 6.818133-11.434667 24.149333-76.808533 23.534933-89.198934-0.725333-14.6688-10.376533-26.914133-5.2736-44.117333 2.474667-8.3456 19.976533-17.041067 21.444267-23.722667 2.798933-12.7232-37.717333-43.9552-2.7136-75.400533 7.9872-7.176533 23.978667-9.941333 28.424533-16.477867 3.882667-5.700267 4.3008-16.597333 8.968534-24.712533 4.864-8.456533 16.170667-14.523733 19.080533-20.206933 6.306133-12.296533 0.110933-29.6448 5.1968-45.320534 5.282133-16.290133 26.1888-28.373333 41.856-33.92 0.4864-39.9104 12.893867-68.829867 54.920533-76.996266 26.359467-5.12 30.242133 2.304 55.168-17.809067 28.509867-23.005867 29.602133-43.400533 78.08-33.5104C640.221867-7.236267 677.213867-4.096 709.504 10.990933c10.820267 5.060267 22.903467 18.2016 35.063467 21.162667 7.901867 1.928533 29.994667-5.9392 46.993066-2.193067 18.491733 4.078933 36.317867 34.039467 63.6416 43.008 7.3984 2.423467 15.854933-0.699733 24.439467 3.626667 8.661333 4.360533 41.147733 33.629867 47.4112 42.402133 7.671467 10.734933 10.103467 21.768533 14.1824 33.536z m-420.983467 33.672534c13.627733 1.083733 28.654933-1.655467 42.001067 0.1024 9.975467 1.314133 26.052267 11.502933 32.904533 10.3936 20.1216-3.2512 33.117867-44.2624 57.847467-49.169067 22.1696 4.215467 32.1792 23.2192 55.432533 22.126933 18.4832-0.8704 30.071467-15.5904 44.8512-17.271466 14.3616-1.6384 27.144533 9.019733 38.9632 5.5552 19.541333-5.7344-1.152-50.5088-17.3056-55.2192-29.806933-8.686933-47.5904 10.897067-61.0816 10.8032-8.106667-0.0512-13.627733-9.2672-21.188266-12.7232-33.92-15.522133-64.264533-13.952-93.576534 9.890133-10.299733 8.379733-18.500267 25.4976-22.442666 28.074667-7.594667 4.9664-28.3392 4.010667-39.543467 10.973866-10.530133 6.545067-18.466133 24.1408-16.853333 36.462934z m-67.370666 129.1264c-2.030933-14.6944 8.081067-41.6768 19.345066-50.833067 16.9472-13.781333 68.974933-6.528 36.949334-36.334933-46.779733-10.1632-86.528 34.107733-68.514134 79.889066 3.157333 8.0128-0.085333 8.797867 12.2112 7.278934z m398.549333 22.4256c9.258667 1.2032 12.706133 0.392533 19.8144-5.4272 25.437867-20.829867 9.838933-56.2176-17.024-67.524267l8.832 36.48-11.6224 36.48zM683.025067 472.490667c-2.193067 14.6944 19.106133 23.586133 30.7456 22.715733 13.2096-0.989867 21.2736-14.097067 28.996266-16.3072 11.1872-3.208533 25.105067 0.981333 37.5808-1.7152 20.667733-4.462933 43.281067-26.965333 47.726934-47.6928 1.92-8.96-0.674133-18.577067 1.578666-26.487467 2.013867-7.074133 13.371733-11.050667 15.4624-18.218666 2.269867-7.7824 2.321067-35.208533-1.8944-41.6256l-25.472-5.410134-2.517333 28.381867-24.866133 20.036267-1.390934 37.905066c-13.0816 26.282667-38.9632 15.752533-57.5488 21.034667-10.7264 3.0464-26.743467 34.056533-48.4096 27.383467zM436.0448 377.0624c-10.555733-0.7168-16.477867-1.467733-25.454933 5.410133-27.733333 21.239467-43.844267 53.666133-11.008 78.779734l13.9008-8.576c2.722133-9.642667-4.693333-18.432-3.003734-25.275734 3.7888-15.402667 31.035733-28.416 25.565867-50.338133z m72.9856 151.560533c-9.437867 9.335467 37.137067 37.8624 47.701333 39.296 14.5664 1.9712 40.925867-5.6576 50.568534-16.802133 3.4304-3.968 14.677333-33.134933 14.011733-36.48-3.729067-18.730667-23.7312 7.458133-28.330667 10.939733-19.2256 14.557867-34.158933 17.8176-58.820266 14.395734-11.4432-1.5872-13.294933-13.3376-25.130667-11.3408z" fill="#E79633" p-id="50182"></path><path d="M941.2352 152.533333c9.053867 26.094933 18.8672 14.933333 27.229867 23.2704 1.348267 1.339733 12.0832 32.256 12.305066 35.925334 0.443733 7.560533-4.608 13.678933-4.48 16.810666 0.273067 6.528 34.670933 27.357867 37.896534 50.2784 2.722133 19.336533-2.2272 33.5872-11.963734 49.757867-3.6352 6.0416-14.574933 14.148267-14.737066 17.399467-0.145067 2.833067 4.736 9.787733 4.770133 17.0496 0.042667 9.045333-5.589333 15.6928-5.998933 22.562133-1.7664 29.269333 5.538133 62.267733-18.116267 85.725867-2.5856 2.568533-9.480533 2.619733-12.936533 6.536533-24.072533 27.298133-38.2976 52.667733-63.812267 79.488-1.629867 1.7152-3.370667 31.453867-14.6688 44.279467-14.199467 16.119467-35.8912 8.021333-53.632 13.7216-16.187733 5.205333-24.541867 25.079467-37.1712 30.190933-15.291733 6.186667-36.778667 4.770133-52.650667 9.096533-14.779733 25.463467-20.5568 55.389867-57.7792 47.121067-10.0608-2.235733-19.0464-14.3104-24.064-15.3856-4.864-1.041067-10.624 4.522667-16.213333 4.923733-58.3936 4.215467-140.689067 28.962133-187.682133 64.913067-20.497067 15.684267-52.727467 58.3936-80.802134 52.360533-8.157867-1.749333-10.786133-7.8848-14.865066-10.504533l-5.742934-33.553067c-13.346133 0.128-26.112-3.6352-39.168-5.742933-5.188267-0.836267-11.4944 0.708267-16.836266 0-10.274133-1.365333-7.261867-2.833067-11.229867-5.614933 6.673067-17.774933 34.4576-56.516267 50.3552-64.6912 17.245867-8.874667 41.454933 9.019733 67.797333 0.418133 40.192-13.124267 33.1008-74.658133 92.561067-70.715733 8.0128 0.529067 16.5376 5.828267 21.393067 5.0944 11.938133-1.800533 31.991467-20.846933 45.8752-21.922134l43.938133 16.494934c9.847467-8.917333 35.473067-17.399467 43.0848-24.4992 7.995733-7.4496 7.253333-25.6 11.921067-30.190934 6.186667-6.075733 47.3088-16.162133 58.2144-17.553066 14.327467-1.8176 29.610667 2.082133 43.861333-1.041067 20.6336-4.522667 70.638933-39.867733 81.553067-58.7776 6.3488-10.990933 4.642133-21.751467 9.0624-30.225067 8.328533-15.982933 42.5472-13.474133 47.837866-47.5904 1.3568-8.763733-1.800533-18.6368 0.682667-27.383466 2.5344-8.917333 22.801067-18.645333 26.4448-35.3024 3.729067-17.0496-2.670933-39.150933 1.723733-54.408534 2.193067-7.620267 16.221867-16.733867 16.213334-28.859733 0-10.2656-13.789867-24.123733-16.1024-34.602667-5.2736-23.936 2.5088-54.4256 15.9232-74.862933z" fill="#C86D24" p-id="50183"></path><path d="M228.360533 685.789867l39.304534 5.6064 0.6912 52.6848c1.860267 6.775467 6.980267 6.5792 10.5216 9.070933 3.968 2.781867 0.955733 4.2496 11.229866 5.614933v5.614934c-8.081067 22.8352-29.7728 35.720533-45.013333 53.213866-4.155733 4.770133-26.641067 32.375467-27.255467 34.491734-8.610133 29.653333 11.2384 63.991467-11.810133 94.839466-25.326933 33.8944-56.2944 30.8736-89.719467 10.9056-8.3456-4.983467-12.347733-17.262933-11.434666 3.012267-0.128-0.477867-4.241067-0.827733-5.691734-8.1408-1.211733-6.135467 0.648533-13.482667 0.085334-19.9424-42.990933 7.492267-93.124267-31.633067-90.0608-75.9808 3.694933-53.486933 48.401067-79.744 98.363733-75.460267 7.210667 0.622933 13.5936 6.596267 22.510933 5.888 23.6288-1.8688 79.2832-73.7536 101.418667-90.1888l1.757867-2.807466c-2.2272-2.466133-3.328-5.6064-4.898134-8.4224z" fill="#EBD0A1" p-id="50184"></path><path d="M306.944 758.7584c13.047467 2.107733 25.821867 5.870933 39.168 5.742933l5.742933 33.553067c-2.4832-1.595733-6.5024-2.193067-8.4224-5.461333l-2.807466 2.500266c-26.3424 30.114133-63.658667 56.0128-83.362134 90.922667-9.3952 16.64 2.542933 22.1184 4.6848 38.434133 8.763733 66.816-31.3344 106.5984-98.039466 98.039467-25.591467-3.285333-48.349867-25.864533-58.0096-48.8704-1.885867-4.488533-0.187733-9.5488-1.024-12.782933-0.913067-20.2752 3.080533-7.995733 11.434666-3.012267 33.4336 19.968 64.392533 22.9888 89.719467-10.9056 23.048533-30.839467 3.2-65.186133 11.810133-94.839467 0.6144-2.107733 23.099733-29.713067 27.255467-34.491733 15.240533-17.493333 36.9408-30.378667 45.013333-53.213867l13.175467-0.802133 3.669333-4.8128z" fill="#D4AF7D" p-id="50185"></path><path d="M520.251733 186.205867c-1.6128-12.322133 6.3232-29.917867 16.853334-36.462934 11.204267-6.9632 31.9488-6.007467 39.543466-10.973866 3.9424-2.577067 12.142933-19.694933 22.442667-28.074667 29.312-23.842133 59.656533-25.412267 93.576533-9.890133 7.560533 3.456 13.0816 12.672 21.188267 12.7232 13.499733 0.085333 31.2832-19.490133 61.0816-10.8032 16.1536 4.7104 36.8384 49.4848 17.3056 55.2192-11.818667 3.473067-24.6016-7.1936-38.9632-5.5552-14.788267 1.6896-26.376533 16.4096-44.8512 17.271466-23.253333 1.092267-33.2544-17.911467-55.432533-22.126933-24.7296 4.906667-37.725867 45.917867-57.847467 49.169067-6.843733 1.109333-22.929067-9.079467-32.904533-10.3936-13.346133-1.757867-28.373333 0.981333-42.001067-0.1024z" fill="#F5B34B" p-id="50186"></path><path d="M683.025067 472.490667c21.666133 6.6816 37.6832-24.337067 48.4096-27.383467 18.5856-5.282133 44.475733 5.248 57.5488-21.034667l1.390933-37.905066 24.866133-20.036267 2.517334-28.381867 25.472 5.410134c4.215467 6.417067 4.1728 33.834667 1.8944 41.6256-2.090667 7.159467-13.457067 11.144533-15.4624 18.218666-2.2528 7.9104 0.341333 17.527467-1.578667 26.487467-4.445867 20.727467-27.0592 43.229867-47.726933 47.6928-12.475733 2.696533-26.3936-1.501867-37.5808 1.7152-7.722667 2.218667-15.778133 15.325867-28.996267 16.3072-11.639467 0.8704-32.938667-8.021333-30.7456-22.715733z" fill="#C66B22" p-id="50187"></path><path d="M452.881067 315.332267c-12.296533 1.518933-9.053867 0.733867-12.2112-7.278934-18.013867-45.781333 21.7344-90.052267 68.514133-79.889066 32.0256 29.806933-20.010667 22.5536-36.949333 36.334933-11.264 9.1648-21.384533 36.1472-19.345067 50.833067z" fill="#F5B14A" p-id="50188"></path><path d="M509.0304 528.622933c11.8272-1.9968 13.687467 9.762133 25.130667 11.3408 24.669867 3.421867 39.594667 0.162133 58.820266-14.395733 4.599467-3.4816 24.6016-29.6704 28.330667-10.939733 0.6656 3.345067-10.581333 32.512-14.011733 36.48-9.634133 11.144533-35.9936 18.773333-50.568534 16.802133-10.564267-1.4336-57.147733-29.960533-47.701333-39.296z" fill="#C86C20" p-id="50189"></path><path d="M436.0448 377.0624c5.469867 21.922133-21.777067 34.944-25.565867 50.338133-1.681067 6.8352 5.7344 15.633067 3.003734 25.275734l-13.9008 8.576c-32.836267-25.1136-16.725333-57.540267 11.008-78.779734 8.977067-6.877867 14.8992-6.126933 25.454933-5.410133z" fill="#F4B048" p-id="50190"></path><path d="M851.4304 337.757867l11.6224-36.48-8.832-36.48c26.862933 11.306667 42.461867 46.6944 17.024 67.524266-7.1168 5.828267-10.555733 6.6304-19.8144 5.4272z" fill="#D17624" p-id="50191"></path><path d="M306.944 758.7584l-3.669333 4.8128-13.175467 0.802133v-5.614933c5.341867 0.708267 11.648-0.836267 16.836267 0z" fill="#E79633" p-id="50192"></path></svg>