<?xml version="1.0" standalone="no"?><!DOCTYPE svg PUBLIC "-//W3C//DTD SVG 1.1//EN" "http://www.w3.org/Graphics/SVG/1.1/DTD/svg11.dtd"><svg t="1765879967189" class="icon" viewBox="0 0 1024 1024" version="1.1" xmlns="http://www.w3.org/2000/svg" p-id="62544" xmlns:xlink="http://www.w3.org/1999/xlink" width="128" height="128"><path d="M172.6 121.7c25.7 39.1 139.7 49.7 146-23.5 3.4 56.1 103.3 73 116.3 6.4 7.8 56.8 127.4 67.1 133.9 4.1 1.5 68.2 116.5 67.6 128.1-3.7 4.9 68.1 120.6 76.4 128.4 13-23.4 11.5-34.4 105 12.5 123.2-42.3 12.9-41.7 141.6 12.8 136-47.5-3.3-55.9 112.3-7.2 128.7-46.4 5.5-52.6 113 1.1 124.6-65.1 29.8-40.3 136.6 18.8 152.9-57.5-21.8-96.9 76.5-46.5 119.7-36.3-39.6-96.8-41.9-122.8 22.4-11.4-58.8-100.8-52.9-116.4-1.3 0.9-62.7-92.1-84.3-108-16.4-10.4-54.5-125.7-49.8-145.7-0.8-0.9-44.7-95-59.8-123.4-9.2 26.6-15.1 12.3-108.2-36.5-114.2 54.1 0.6 65.8-119.1-1.2-120.1 68.1-16.1 67.4-130.2 2-138.4 65.1-20.7 78.7-117.1 1.8-124.4 68.5-26.9 49.4-119.4-5.8-129.8 68.5-7.8 81.8-129.4 11.8-149.2" fill="#EDD08F" p-id="62545"></path><path d="M146.3 137c19.2 28.6 52.6 40.7 85.5 44.6 32.2 3.9 66.9-3.5 91.3-25.7 16.6-15.1 24-36 26.1-57.8h-61c1.3 18.8 8 34.7 20.1 49.1 10.2 12 24.4 19.8 38.9 25.3 26.6 10.1 61.4 7.6 84.5-9.7 16.6-12.5 28.5-29.4 32.7-50.1h-58.8c5 33.9 37.8 57 68.9 65.1 29.7 7.8 67 6.3 92.6-12.4 9-6.6 16.5-13.7 22.3-23.4 6.3-10.5 8.6-21.3 10-33.3h-61c0.6 20.1 7.5 38.2 20.8 53.2 10.7 12.1 26.6 20.5 42.1 24.4 33.9 8.6 70.1-0.1 96.6-22.8 14.6-12.5 25.2-31.5 28.5-50.4-20-2.7-39.9-5.4-59.9-8.1 1.7 20.7 8.8 38.7 22.6 54.2 11.4 12.8 27.2 21.5 43.3 26.9 28.8 9.7 65.8 7.4 90.8-11 9-6.6 16.6-13.9 22.4-23.6 6.4-10.7 8.7-21.4 10.3-33.6 1.4-10.2-6.8-21.4-15.1-26.3-9.8-5.7-20.9-5.1-30.8 0-10.2 5.2-18.1 15.6-22.8 25.8-6.3 13.7-9.4 27-11.2 41.9-3.2 25.8 0.2 53.9 13.1 76.8 3.8 6.7 8.7 13.3 14.4 18.5 8.2 7.5 16.2 11.8 26.4 15.9v-58.8c-35.2 11.2-47.8 48.4-51.5 81.7-3.6 32 2.5 66.7 22.7 92.3 11.5 14.5 31.1 23.7 49.7 22 8.2-0.8 15.5-2.9 21.6-8.9 5.3-5.3 9.3-14 8.9-21.6-0.8-17.3-13.4-29.5-30.5-30.5-34.6-1.9-58 28.9-65.9 59.2-8 30.5-5.7 64.6 8.6 92.9 8.8 17.4 23.8 30.1 42 36.5 2.7-20 5.4-39.9 8.1-59.9-10.1 1.3-18.4 3-27.4 8.3-6 3.6-11.7 8.2-16.2 13.6-10 11.9-17 26-20.5 41.3-6.5 28.9-4.4 63.1 12.3 88.5 10.5 15.9 25.8 28.6 44.7 32.9-2.4-18.6-4.9-37.1-7.3-55.7-33.5 15.6-51.5 50.3-53.5 86-1.9 33.5 11 67.3 32.6 92.5 12.2 14.2 29 24.9 46.9 30 15.3 4.4 33.9-5.3 37.5-21.3 3.9-17.2-5.2-31.6-21.3-37.5-14.7-5.4-32.7-5.9-47.4-0.3-17.3 6.5-30.2 17.5-41.1 32.3-18.5 25.2-23.7 60.2-16.6 90.2 4.4 18.3 14.7 36.1 28.9 48.5 6.1 5.4 13.2 8.9 21.6 8.9 7.5 0 16.4-3.3 21.6-8.9 11.5-12.5 11.6-30.6 0-43.1-19.1-20.6-44-33.2-71.7-36.5-26.7-3.2-53.7 7.7-72.9 26-13.6 13-22.1 29.1-29.1 46.3h58.8c-6.2-30.5-31.2-54.9-61.4-61.7-27.2-6.1-58-1.5-80.7 15.3-15.7 11.6-27.2 26.4-33.1 45.2 20 2.7 39.9 5.4 59.9 8.1 0.2-32.3-17.9-63.8-47.2-78.3-27.1-13.4-61.8-15.1-87.2 3.5-17 12.5-28.5 29.7-33.4 50.3h58.8c-6.6-32.7-38.5-53.6-69.6-58.9-32.6-5.6-67.4-1.9-96.6 14.5-7.6 4.3-15 9.7-21 16-8.1 8.4-12.8 17.1-17.3 27.6 20 2.7 39.9 5.4 59.9 8.1-1.1-33.2-26-55.8-55.8-65.8-28.2-9.5-59.6-6.6-86.3 5.8-15.8 7.3-29.4 20.4-38 35.5-6.5 11.3-5.2 27.8 4.8 36.9 10 9.2 24.9 11.9 36.9 4.8 23.4-13.8 30-43.9 28-69.2-2.3-28.4-11.6-56.5-31.1-77.9-10.3-11.3-25.4-20.8-40.7-22.8-2.7 20-5.4 39.9-8.1 59.9 36.3 0 62-29.2 71.1-62.1 8.9-32.3 4.2-68.8-17.7-94.8-13.4-15.9-34.2-23.6-54.5-24.1 2.7 20 5.4 39.9 8.1 59.9 73.3-18 94.8-116 49.2-170.7-11.5-13.8-29.3-24.1-47.2-26.5v58.8c34-11.1 60.1-36.7 71.7-70.6 10.3-30.1 4.5-66.6-18.9-89.2-16.3-15.7-37.1-22.2-59.1-24.5 2.7 20 5.4 39.9 8.1 59.9 16.8-6.7 32.7-15.7 44.1-30.2 10.2-12.9 17.9-27.4 20.4-43.8 5-32.4-3.5-65-26-89.3-11.5-12.4-27.7-22.1-44.4-25.4-2.7 20-5.4 39.9-8.1 59.9 12.3-1.5 22.1-3.9 33.4-9.3 7.8-3.7 15.1-9.3 21.3-15.2 13.2-12.4 22.2-28.9 27.9-45.9 10.6-31.7 8.1-71.1-10.3-99.5-12.4-19.1-30.5-32.9-52.4-39.3-15.3-4.5-33.9 5.4-37.5 21.3-3.7 16.3 4.9 32.7 21.3 37.5 2.6 0.8 5.1 1.6 7.6 2.7-2.4-1-4.9-2-7.3-3.1 3.5 1.5 6.9 3.4 10.1 5.5 0.8 0.5 1.5 1.1 2.3 1.6-8.7-5.7-5.2-4.2-3.3-2.4 1.5 1.3 2.9 2.7 4.3 4.1 1.1 1.2 5.6 6.8 1.5 1.4s0.2 0.4 1 1.8c2.1 3.2 3.8 6.6 5.4 10.2-1-2.4-2-4.9-3.1-7.3 2.9 7 4.8 14.2 5.9 21.7-0.4-2.7-0.7-5.4-1.1-8.1 1.1 8.6 1 17.3-0.1 25.9 0.4-2.7 0.7-5.4 1.1-8.1-1.2 8.3-3.3 16.3-6.5 24 1-2.4 2-4.9 3.1-7.3-1.7 4-3.7 8-6 11.7-1.1 1.8-2.4 3.6-3.6 5.4-2.6 3.7 5.7-6.9 2.2-2.9l-2.1 2.4c-1.4 1.6-2.9 3.1-4.5 4.5-0.7 0.6-1.4 1.2-2 1.8-3.3 3 7.6-5.4 2.6-2-3.5 2.4-7.1 4.5-11.1 6.1 2.4-1 4.9-2 7.3-3.1a61 61 0 0 1-14.5 3.9c2.7-0.4 5.4-0.7 8.1-1.1-0.3 0-0.6 0.1-1 0.1-8 1-15.8 2.6-21.6 8.9-4.6 5-7.5 10.7-8.4 17.5-1.9 14 6.9 30.5 21.8 33.4 3.8 0.7 7.4 1.8 11 3.3-2.4-1-4.9-2-7.3-3.1 3.6 1.5 7 3.4 10.2 5.6 2.4 1.7 4.3 4.6-2.8-2.2l2.1 1.8c1.4 1.2 2.7 2.5 4 3.9 1.3 1.4 2.4 2.9 3.7 4.3-7.5-8.4-2.7-3.6-0.9-0.8 2.2 3.5 4.1 7.2 5.7 11-1-2.4-2-4.9-3.1-7.3 2.6 6.3 4.4 12.8 5.3 19.5-0.4-2.7-0.7-5.4-1.1-8.1 0.8 6.5 0.8 12.9 0 19.4 0.4-2.7 0.7-5.4 1.1-8.1-0.8 5.8-2.4 11.5-4.6 17 1-2.4 2-4.9 3.1-7.3-1.5 3.5-3.3 6.9-5.4 10.1-0.6 0.9-1.2 1.7-1.7 2.5-1.8 2.8 5.3-6.6 2.6-3.3-1.4 1.6-2.7 3.2-4.2 4.7-1.4 1.4-2.9 2.7-4.4 4-3.6 3.1 2.6-2.1 3.1-2.4-1 0.4-1.9 1.3-2.8 1.9-4 2.7-8.2 4.9-12.6 6.8 2.4-1 4.9-2 7.3-3.1-0.8 0.3-1.6 0.7-2.3 1-7.3 2.9-14.3 6.7-18.2 14-3.3 6.2-4.5 12.5-3.6 19.4 0.9 6.4 3.5 13 8.4 17.5 6.3 5.8 13.1 8.1 21.6 8.9 1.2 0.1 2.4 0.3 3.7 0.4-2.7-0.4-5.4-0.7-8.1-1.1 6.2 0.9 12.3 2.4 18.1 4.9-2.4-1-4.9-2-7.3-3.1 3 1.3 5.9 2.8 8.6 4.6 0.6 0.4 1.3 0.9 1.9 1.3 2.3 1.4-6.7-5.6-3.6-2.8 1.1 1 2.3 2 3.3 3s2 2.2 3 3.2c2.4 2.5-3.3-4.5-3.2-4.1 0.3 0.6 0.9 1.2 1.2 1.8 1.7 2.5 3.1 5.1 4.3 7.9-1-2.4-2-4.9-3.1-7.3 1.8 4.3 3 8.7 3.6 13.2-0.4-2.7-0.7-5.4-1.1-8.1 0.7 5.6 0.7 11.2 0 16.8 0.4-2.7 0.7-5.4 1.1-8.1-0.9 6.5-2.6 12.7-5.1 18.7 1-2.4 2-4.9 3.1-7.3-1.9 4.4-4.1 8.7-6.8 12.7-0.5 0.8-1.1 1.6-1.7 2.4-3.5 5.2 4.8-5.7 1.8-2.2-1.5 1.8-3 3.5-4.6 5.2-1.6 1.7-3.3 3.3-5.1 4.8-2 1.7-6.8 4.8 2.2-1.6-0.8 0.6-1.7 1.2-2.5 1.8-4.3 3-9 5.5-13.8 7.7 2.4-1 4.9-2 7.3-3.1-2.4 1-4.7 1.9-7.2 2.7-12.3 4-23 15.7-22.4 29.4 0.2 5.4 1.6 10.6 4.2 15.4 3 5.8 11.5 13.1 18.2 14 4.7 0.6 9.2 1.8 13.6 3.6-2.4-1-4.9-2-7.3-3.1 3.3 1.4 6.3 3.1 9.3 5.1 4.9 3.3-6.8-5.7-1.7-1.3 1.3 1.1 2.6 2.3 3.7 3.6 1.1 1.2 2.1 2.4 3.1 3.6-7.6-8.4-3-4-1.2-1.2 1.9 3 3.5 6.2 5 9.4-1-2.4-2-4.9-3.1-7.3 2.7 6.5 4.5 13.3 5.5 20.3-0.4-2.7-0.7-5.4-1.1-8.1 1 7.8 1 15.7 0 23.6 0.4-2.7 0.7-5.4 1.1-8.1-1 7.5-3 14.9-5.9 21.9 1-2.4 2-4.9 3.1-7.3-1.6 3.7-3.5 7.4-5.6 10.8-0.9 1.4-5.5 7.6-1.4 2.3s-0.7 0.7-1.9 1.9c-1.3 1.4-2.6 2.7-4 3.9-1.1 0.9-4.8 3.9 0.2 0s1.2-0.9 0-0.1c-3.5 2.4-7.2 4.4-11.1 6 2.4-1 4.9-2 7.3-3.1-3.2 1.3-6.4 2.3-9.7 3.1-14.7 3.6-23.8 18.9-21.8 33.4 2 15.1 14.6 26.1 29.9 26.4 2.2 0.1 4.4 0.2 6.6 0.5-2.7-0.4-5.4-0.7-8.1-1.1 3.7 0.6 7.3 1.5 10.8 2.9-2.4-1-4.9-2-7.3-3.1 2.6 1.1 4.9 2.6 7.4 4 3.5 2.1-3.9-3.1-4-3.1 0.4 0.5 1.1 0.8 1.5 1.3 1 1 2.1 1.9 3.1 3 0.4 0.5 0.8 1 1.3 1.5 2.9 3-3.1-4.1-3.1-4 0.5 1.1 1.6 2.2 2.2 3.3 1.6 2.5 2.9 5.1 4 7.9-1-2.4-2-4.9-3.1-7.3 2.3 5.7 3.8 11.7 4.7 17.8-0.4-2.7-0.7-5.4-1.1-8.1 0.9 7.5 0.9 15.1-0.1 22.5 0.4-2.7 0.7-5.4 1.1-8.1-1 7.4-2.9 14.6-5.7 21.5 1-2.4 2-4.9 3.1-7.3-1.3 3-2.7 5.9-4.4 8.8-0.8 1.2-1.6 2.4-2.4 3.7-2.6 4 4.9-6 2.9-3.7l-1.5 1.8c-0.9 1-1.9 2.1-2.9 3-2.5 2.4-7.2 4.7 2.2-1.4-2.5 1.6-4.8 3.2-7.6 4.4 2.4-1 4.9-2 7.3-3.1-2.7 1.1-5.6 1.9-8.5 2.4 2.7-0.4 5.4-0.7 8.1-1.1-1.8 0.2-3.6 0.3-5.4 0.3-15.2 0-27.9 11.6-29.9 26.4-0.9 6.5 0 13.8 3.6 19.4 4 6.1 10.6 13 18.2 14 3.6 0.5 7.1 1.4 10.5 2.8-2.4-1-4.9-2-7.3-3.1 3.4 1.5 6.2 3.4 9.3 5.4-9.2-5.8-3.8-3.1-1.3-0.6 1.3 1.3 2.6 2.7 3.8 4.1 1.7 1.9 3.5 5.5-2.4-3.2 0.5 0.8 1.1 1.5 1.7 2.3 1.1 1.6 2.2 3.2 3.2 4.9 2 3.4 3.8 7 5.4 10.7-1-2.4-2-4.9-3.1-7.3 3.8 9 6.3 18.5 7.7 28.2-0.4-2.7-0.7-5.4-1.1-8.1 1 8 1.3 16.1 0.3 24.1 0.4-2.7 0.7-5.4 1.1-8.1-0.6 4.7-1.7 9.2-3.5 13.6 1-2.4 2-4.9 3.1-7.3-0.5 1.1-1 2.1-1.5 3.1-0.8 1.5-3.9 5.5 0.2 0.1 4-5.2 1.2-1.9 0.1-0.6-2.4 2.8 5-3.7 4.6-3.5l-1.5 0.9 41.7 41.7c0.8-1.4 1.6-2.8 2.5-4.1 0.4-0.6 0.8-1.1 1.2-1.7 1.9-2.8-5.4 6.5-2.5 3.3 2.1-2.3 4.2-4.5 6.5-6.6 0.5-0.4 1.1-0.8 1.6-1.3 0.2-0.2-6.8 5-3.7 2.9 1.3-0.9 2.5-1.7 3.8-2.5 2.8-1.7 5.7-3.1 8.6-4.4-2.4 1-4.9 2-7.3 3.1 6.7-2.8 13.7-4.6 20.9-5.6-2.7 0.4-5.4 0.7-8.1 1.1 8.2-1 16.5-1 24.7 0.1-2.7-0.4-5.4-0.7-8.1-1.1 7.1 1 14.1 2.9 20.8 5.6-2.4-1-4.9-2-7.3-3.1 2.8 1.2 5.6 2.6 8.2 4.2 1.1 0.7 2.2 1.5 3.3 2.2 3.8 2.5-7-5.9-2.1-1.6 0.9 0.8 1.9 1.7 2.7 2.6 0.5 0.5 0.9 1 1.4 1.5 2.9 3.1-3-4-3-4 1.3 2.3 2.9 4.4 4 6.9-1-2.4-2-4.9-3.1-7.3 1.1 2.7 1.9 5.5 2.3 8.4-0.4-2.7-0.7-5.4-1.1-8.1 0.1 1.1 0.2 2.2 0.2 3.3 0.5 15.2 11.2 27.9 26.4 29.9 6.5 0.9 13.8 0 19.4-3.6 7.1-4.6 10.8-10.5 14-18.2 0.1-0.3 0.2-0.5 0.3-0.8-1 2.4-2 4.9-3.1 7.3 1.4-3.1 3.2-5.7 5-8.6-5.9 9.3-3.3 4.1-1 1.7 1.3-1.4 2.7-2.6 4.1-3.9 5.2-4.5-6.9 4.9-1.3 1 1.5-1 3-2 4.6-3 3.4-2 6.9-3.7 10.5-5.3-2.4 1-4.9 2-7.3 3.1 9-3.7 18.3-6.1 27.9-7.5-2.7 0.4-5.4 0.7-8.1 1.1 10.7-1.4 21.6-1.6 32.4-0.2-2.7-0.4-5.4-0.7-8.1-1.1 7.9 1.1 15.6 3 23 6-2.4-1-4.9-2-7.3-3.1 2.9 1.2 5.7 2.6 8.3 4.2 1.2 0.7 2.4 1.6 3.6 2.3 3.6 2.3-3.8-3-3.8-3 0.4 0.5 1.4 1.2 1.9 1.6 1 0.9 2 1.9 3 2.9 0.5 0.5 0.9 1 1.4 1.5 2.8 3.1-3-3.9-3-3.9 0.9 2.6 3.3 5.2 4.5 7.7-1-2.4-2-4.9-3.1-7.3 1.1 2.6 1.9 5.3 2.5 8 2.5 12.5 16.8 22.9 29.4 22.4 13.1-0.6 26.2-9 29.4-22.4 0.9-3.7 2-7.3 3.5-10.9-1 2.4-2 4.9-3.1 7.3 1.4-3.2 2.9-6.3 4.8-9.2 0.4-0.5 0.8-1.1 1.1-1.6 2.2-3.7-4.5 5.3-2.7 3.5 1.1-1.1 2-2.4 3.1-3.5 1-1 2.1-1.8 3-2.8 2.9-2.9-5.9 4.2-3.7 2.8 0.6-0.4 1.2-0.9 1.8-1.3 2.5-1.6 5.1-3 7.8-4.1-2.4 1-4.9 2-7.3 3.1 4.1-1.6 8.2-2.8 12.6-3.4-2.7 0.4-5.4 0.7-8.1 1.1 5-0.6 9.9-0.6 14.9 0-2.7-0.4-5.4-0.7-8.1-1.1 5.3 0.8 10.5 2.2 15.4 4.2-2.4-1-4.9-2-7.3-3.1 3.3 1.4 6.5 3.1 9.5 5 0.8 0.5 1.5 1 2.2 1.5 3.4 2.3-6.1-5-3.6-2.9 1.4 1.2 2.8 2.3 4.1 3.6 1.2 1.2 2.3 2.4 3.5 3.6 1.8 2 3.1 5.2-2.5-3.3 0.5 0.8 1.1 1.5 1.6 2.2 2.1 3.1 3.9 6.4 5.3 9.9-1-2.4-2-4.9-3.1-7.3 1.9 4.6 3.1 9.4 3.8 14.3-0.4-2.7-0.7-5.4-1.1-8.1 0.3 2.8 0.5 5.6 0.5 8.4-0.1 15.2 11.7 28 26.4 29.9 15.2 2 28.9-7.2 33.4-21.8 0.5-1.6 1-3.1 1.7-4.7-1 2.4-2 4.9-3.1 7.3 1.4-3.3 3.1-6.3 5-9.3 2.9-4.6-1.9 3.2-2.5 3.1 0.1 0 1.7-2.1 1.8-2.2 1.1-1.3 2.4-2.6 3.6-3.7 0.5-0.4 4-2.9 3.9-3.4 0 0.6-7.6 5.4-3.1 2.5 0.7-0.4 1.3-0.9 2-1.3 3.1-2 6.4-3.6 9.7-5.1-2.4 1-4.9 2-7.3 3.1 6-2.5 12.2-4.2 18.5-5.1-2.7 0.4-5.4 0.7-8.1 1.1 6.4-0.8 12.7-0.9 19.1 0-2.7-0.4-5.4-0.7-8.1-1.1 5.3 0.8 10.4 2.1 15.3 4.1-2.4-1-4.9-2-7.3-3.1 2.8 1.2 5.6 2.6 8.2 4.2 1.4 0.9 5.7 4.1 0.7 0.3-5.2-4-0.3-0.1 0.8 0.9 1 1 1.9 2 2.9 3 4.2 4.3-4.5-6.8-1.3-1.7 1.8 2.8 3.4 5.6 4.7 8.6-1-2.4-2-4.9-3.1-7.3 1.5 3.6 2.6 7.3 3.4 11.2 2.5 12.5 16.8 22.9 29.4 22.4 5.4-0.2 10.6-1.6 15.4-4.2 7.4-3.9 11-10.9 14-18.2 0.2-0.5 0.4-1 0.6-1.4-1 2.4-2 4.9-3.1 7.3 2.3-5.4 4.9-10.6 8-15.5 1.3-2.1 2.7-4.1 4.1-6.1 1.9-2.7-5.6 6.6-1.6 2.2 0.8-0.9 1.6-1.9 2.5-2.8 1.5-1.6 3.1-3.2 4.7-4.6 0.9-0.8 1.8-1.5 2.7-2.3-7.1 6.4-4.7 3.5-2.5 2 3.6-2.5 7.4-4.6 11.5-6.3-2.4 1-4.9 2-7.3 3.1 4.9-2 9.9-3.4 15.2-4.1-2.7 0.4-5.4 0.7-8.1 1.1 5.6-0.7 11.1-0.7 16.6 0-2.7-0.4-5.4-0.7-8.1-1.1 6.4 0.9 12.6 2.6 18.6 5-2.4-1-4.9-2-7.3-3.1 5.7 2.4 11.1 5.4 16.2 8.9 0.6 0.4 1.2 0.9 1.9 1.3 2.7 1.8-5.9-4.8-3.4-2.6l3.6 3c2.5 2.2 4.9 4.6 7.2 7.1l43.1-43.1c-1.9-1.6-3.7-3.3-5.4-5.2-0.9-1-1.7-2-2.6-3-3-3.5 4.8 6.7 2.1 2.7-2.6-3.9-4.9-7.9-6.8-12.3 1 2.4 2 4.9 3.1 7.3-2.5-5.9-4.1-12.1-5-18.5 0.4 2.7 0.7 5.4 1.1 8.1-0.9-7.4-0.9-14.8 0.1-22.2-0.4 2.7-0.7 5.4-1.1 8.1 1-7.3 2.9-14.3 5.7-21.1-1 2.4-2 4.9-3.1 7.3 1.6-3.7 3.4-7.3 5.5-10.8 0.9-1.5 2-3 3-4.5 3-4.3-4.5 5.5-2.4 3.1 0.6-0.7 1.2-1.5 1.9-2.2 1.2-1.3 2.4-2.5 3.6-3.7 2.7-2.5 7.9-4.8-1.2 0.6 3.2-1.9 6-3.9 9.4-5.4-2.4 1-4.9 2-7.3 3.1 3.4-1.4 6.8-2.4 10.4-2.9-2.7 0.4-5.4 0.7-8.1 1.1 3.7-0.5 7.4-0.5 11.2-0.1-2.7-0.4-5.4-0.7-8.1-1.1 3.7 0.5 7.3 1.5 10.8 2.8l16.2-58.8c-2.5-0.7-4.9-1.6-7.3-2.6 2.4 1 4.9 2 7.3 3.1-4.5-2-8.6-4.5-12.7-7.2-3.8-2.5 7.1 5.9 2.3 1.8-1-0.9-2-1.7-3-2.6-1.7-1.6-3.4-3.2-4.9-5-2.1-2.3-7.3-9.7-0.4-0.1-1.6-2.2-3.2-4.4-4.6-6.8-2.8-4.4-5.1-9.1-7.2-13.9 1 2.4 2 4.9 3.1 7.3-3.7-8.8-6.2-17.9-7.6-27.3 0.4 2.7 0.7 5.4 1.1 8.1-1.1-8.6-1.2-17.2-0.1-25.8-0.4 2.7-0.7 5.4-1.1 8.1 1-6.7 2.7-13.1 5.3-19.4-1 2.4-2 4.9-3.1 7.3 1.5-3.4 3.1-6.6 5.1-9.7 0.9-1.4 5-6.9 1.1-1.8-3.9 5.1 0.4-0.3 1.6-1.5 1.2-1.2 2.4-2.4 3.7-3.6 0.7-0.7 1.7-1.3 2.4-2-0.8 0.9-7.1 5.2-2.8 2.2 3.3-2.3 6.9-4.3 10.5-6 4.3-2 8.6-7 10.9-10.9 3.5-5.9 4.5-12.7 3.6-19.4-1.5-11.4-10.1-22.7-21.8-25.3-2.6-0.6-5.1-1.4-7.6-2.4 2.4 1 4.9 2 7.3 3.1-2.6-1.2-4.9-2.7-7.4-4.2-3.4-2.1 6.3 5.5 3.5 2.7-0.4-0.4-0.9-0.7-1.3-1.1-1.1-1-2.2-2.2-3.3-3.3-4.2-4.7 4 5.8 1.6 2.2l-2.4-3.6c-1.6-2.7-3-5.5-4.2-8.3 1 2.4 2 4.9 3.1 7.3-2.7-6.6-4.4-13.6-5.4-20.7 0.4 2.7 0.7 5.4 1.1 8.1-1.1-8.6-1-17.2 0.1-25.8-0.4 2.7-0.7 5.4-1.1 8.1 1-7.6 2.9-15 5.9-22.1-1 2.4-2 4.9-3.1 7.3 1.1-2.6 2.4-5.2 3.8-7.7 0.7-1.2 1.5-2.3 2.2-3.5 3.2-4.8-5.9 6.7-1.6 2.1 0.9-1 1.7-1.9 2.7-2.8 4.1-3.8-0.8 0.6-2.7 1.8 2.2-1.4 4.3-2.8 6.8-3.9-2.4 1-4.9 2-7.3 3.1 2.4-0.9 4.7-1.6 7.2-2-2.7 0.4-5.4 0.7-8.1 1.1 0.3 0 0.5-0.1 0.8-0.1 8-1.1 15.7-2.6 21.6-8.9 4.6-5 7.5-10.7 8.4-17.5 2.1-15.6-7.3-28.4-21.8-33.4-0.8-0.3-1.5-0.6-2.3-0.9 2.4 1 4.9 2 7.3 3.1-2.5-1.1-4.7-2.5-7-3.9-3.3-2 6.4 5.6 3.6 2.8-0.4-0.4-0.8-0.7-1.2-1.1-1.1-1-2.1-2.1-3.1-3.2-4.1-4.6 4.1 5.9 1.7 2.3-0.8-1.2-1.6-2.3-2.3-3.5-1.6-2.6-2.9-5.4-4.2-8.2 1 2.4 2 4.9 3.1 7.3-3-7.2-4.9-14.8-6-22.5 0.4 2.7 0.7 5.4 1.1 8.1-1.4-10.3-1.4-20.7 0-31-0.4 2.7-0.7 5.4-1.1 8.1 1.1-7.9 3-15.6 6-23-1 2.4-2 4.9-3.1 7.3 1.1-2.6 2.3-5.1 3.7-7.5 0.7-1.2 1.4-2.3 2.1-3.4 0.4-0.5 0.8-1 1.1-1.6 1.2-2.1-5.7 6.8-3.1 4.1 1.6-1.7 3.2-3.3 4.9-4.9-1.2 1.1-7.4 5.2-2.7 2.3 1.1-0.7 2.2-1.2 3.4-1.8-2.4 1-4.9 2-7.3 3.1 2.2-0.9 4.4-1.5 6.7-1.9-2.7 0.4-5.4 0.7-8.1 1.1 1.9-0.3 3.9-0.3 5.8-0.2v-61c-2.5 0.2-4.9 0.2-7.4-0.1 2.7 0.4 5.4 0.7 8.1 1.1-2.5-0.4-4.9-1-7.3-2 2.4 1 4.9 2 7.3 3.1-2.1-0.9-3.9-2.2-5.9-3.4 9.1 5.7 5.3 4.3 3 2.1-1-0.9-1.8-1.9-2.7-2.9-4-4.3 4.2 6.1 2.1 2.7-0.7-1.1-1.4-2.1-2.1-3.2-1.4-2.4-2.7-4.9-3.8-7.5 1 2.4 2 4.9 3.1 7.3-3.4-8.2-5.5-16.8-6.6-25.6 0.4 2.7 0.7 5.4 1.1 8.1-1.5-11.6-1.4-23.3 0-34.8-0.4 2.7-0.7 5.4-1.1 8.1 1.2-9 3.3-18 6.8-26.4-1 2.4-2 4.9-3.1 7.3 1.1-2.5 2.3-5 3.7-7.4 0.6-1.1 1.3-2.1 2-3.2 0.3-0.5 0.7-1 1-1.5 2.1-3.2-5.6 6.7-3 3.9l4.8-4.8c-7 7.2-5.8 4.2-2.7 2.4 1-0.6 2-1.1 3.1-1.6-2.4 1-4.9 2-7.3 3.1l2.4-0.9c12.3-3.9 23-15.7 22.4-29.4-0.2-5.4-1.6-10.6-4.2-15.4-3.9-7.3-10.9-11.1-18.2-14-0.3-0.1-0.6-0.2-0.9-0.4 2.4 1 4.9 2 7.3 3.1-2.7-1.2-5.3-2.6-7.8-4.3-4.3-2.8 6.4 5.6 2.2 1.6-1.1-1.1-2.2-2.1-3.2-3.2-0.4-0.5-0.8-1-1.2-1.4-2.9-3 4.2 5.8 2.8 3.6-0.7-1.2-1.6-2.3-2.3-3.5-1.7-2.7-3.1-5.6-4.3-8.5 1 2.4 2 4.9 3.1 7.3-3-7.1-4.8-14.6-5.9-22.3 0.4 2.7 0.7 5.4 1.1 8.1-1.4-10.9-1.3-21.9 0.1-32.7-0.4 2.7-0.7 5.4-1.1 8.1 1.2-8.7 3.2-17.3 6.6-25.4-1 2.4-2 4.9-3.1 7.3 1.5-3.4 3.4-6.3 5.3-9.5-5.4 9.1-4.1 5.2-1.6 2.5 3.2-3.5-7.2 4.7-4 3 0.6-0.3 1.2-0.7 1.8-1-15.3-8.8-30.6-17.5-45.9-26.3 0 0.3-0.1 0.6-0.1 0.9 0.4-2.7 0.7-5.4 1.1-8.1-0.6 4.1-1.7 8.1-3.3 12 1-2.4 2-4.9 3.1-7.3-1.3 2.8-2.8 5.4-4.5 8-2.1 3.3 5.2-6.3 3-3.9-0.4 0.5-0.9 1-1.3 1.6-1 1.1-2 2.2-3.1 3.2-1.2 1.1-5.5 4.5-0.4 0.5 5.2-4 0.5-0.5-1 0.4-2.6 1.6-5.4 3-8.2 4.2 2.4-1 4.9-2 7.3-3.1-5.6 2.3-11.5 3.8-17.5 4.6 2.7-0.4 5.4-0.7 8.1-1.1-7.2 0.9-14.4 0.9-21.6 0 2.7 0.4 5.4 0.7 8.1 1.1-7.5-1-14.9-3-21.9-5.9 2.4 1 4.9 2 7.3 3.1-3.6-1.6-7.1-3.3-10.4-5.4-1.5-1-2.9-2.1-4.4-3 9.5 6.2 3.5 2.8 1.1 0.5-1.4-1.3-2.8-2.7-4-4.1-0.6-0.6-1.1-1.5-1.7-2 0.5 0.5 5.3 7.5 2.6 3.3-2.2-3.3-4.1-6.6-5.7-10.2 1 2.4 2 4.9 3.1 7.3-1.8-4.4-3-8.9-3.7-13.7 0.4 2.7 0.7 5.4 1.1 8.1-0.2-1.3-0.3-2.6-0.4-4-1.2-14.3-10.7-26.9-26.4-29-13.7-1.8-30.9 6.9-33.4 21.8-0.9 5-2.2 9.9-4.2 14.6 1-2.4 2-4.9 3.1-7.3-1.6 3.8-3.7 7.4-6 10.8-1.5 2.3-4.2 4.2 2.6-3.2l-1.8 2.1c-1.3 1.5-2.7 2.9-4.1 4.3-1.1 1.1-3.7 2.6-4.5 3.9 0.4-0.7 7.4-5.3 3.2-2.6-0.8 0.5-1.5 1-2.3 1.5-3.3 2.1-6.8 3.9-10.4 5.5 2.4-1 4.9-2 7.3-3.1-6.4 2.7-13.2 4.5-20.1 5.5 2.7-0.4 5.4-0.7 8.1-1.1-7.1 0.9-14.3 1-21.4 0 2.7 0.4 5.4 0.7 8.1 1.1-6-0.9-11.9-2.4-17.5-4.8 2.4 1 4.9 2 7.3 3.1-2.8-1.2-5.6-2.6-8.2-4.3-1.4-0.9-6.2-4.5-1-0.5s0.5 0.3-0.7-0.8c-1-0.9-2-1.9-2.9-3-0.4-0.5-1.1-1.5-1.6-1.9 0.5 0.3 5.4 7.6 2.8 3.5-1.7-2.6-3.2-5.3-4.5-8.2 1 2.4 2 4.9 3.1 7.3-1.6-3.9-2.7-8-3.3-12.1 0.4 2.7 0.7 5.4 1.1 8.1-0.3-2.3-0.5-4.5-0.5-6.8-0.5-15.9-13.7-31.2-30.5-30.5-7.9 0.4-16.1 2.9-21.6 8.9-5.8 6.3-8 13.1-8.9 21.6-0.1 0.6-0.1 1.2-0.2 1.8 0.4-2.7 0.7-5.4 1.1-8.1-0.6 3.8-1.5 7.4-3 10.9 1-2.4 2-4.9 3.1-7.3-1.2 2.7-2.6 5.1-4.1 7.5-2.3 3.5 5.8-7 1.8-2.4-1 1.1-2 2.2-3.1 3.2-0.5 0.5-1 0.9-1.5 1.3-3.2 2.9 4-3 3.9-3-1.2 0.7-2.2 1.6-3.4 2.3-2.6 1.6-5.4 3-8.2 4.3 2.4-1 4.9-2 7.3-3.1-6.3 2.6-12.9 4.3-19.6 5.2 2.7-0.4 5.4-0.7 8.1-1.1-8.6 1.1-17.4 1-26-0.1 2.7 0.4 5.4 0.7 8.1 1.1-8.3-1.2-16.4-3.3-24.2-6.5 2.4 1 4.9 2 7.3 3.1-3.6-1.5-7-3.2-10.4-5.2-1.5-0.9-2.9-1.9-4.4-2.9-4.1-2.7 3.1 2.2 3.4 2.7-0.5-0.7-1.6-1.3-2.3-1.9-1.4-1.2-2.7-2.5-3.9-3.8-2.4-2.5-4.7-7.5 1.1 1.7-1.9-3-3.8-5.8-5.2-9.2 1 2.4 2 4.9 3.1 7.3-1.4-3.3-2.3-6.8-2.8-10.3-0.9-6.3-6.2-12.2-10.9-15.8-5.1-4-11.8-6.8-18.5-6.5-12.8 0.6-26.7 9-29.4 22.4-0.8 4.2-2 8.2-3.7 12.2 1-2.4 2-4.9 3.1-7.3-1.3 3-2.8 5.8-4.6 8.5-0.4 0.6-0.9 1.2-1.3 1.9-1.4 2.3 5.7-6.7 2.8-3.7-1 1.1-2 2.2-3.1 3.3-0.8 0.7-3 2-3.3 2.9 0 0.1 6.9-5 4.1-3.2l-1.8 1.2c-2.6 1.7-5.3 3.1-8.1 4.3 2.4-1 4.9-2 7.3-3.1-4.9 2-10 3.4-15.3 4.1 2.7-0.4 5.4-0.7 8.1-1.1-6.3 0.8-12.5 0.7-18.8-0.1 2.7 0.4 5.4 0.7 8.1 1.1-6.3-0.9-12.3-2.6-18.2-5 2.4 1 4.9 2 7.3 3.1-3.3-1.4-6.4-3-9.5-4.9-1.5-0.9-2.9-2-4.3-3 9.4 6.1 3.9 3.1 1.5 0.9-1.3-1.2-2.5-2.4-3.6-3.7-0.6-0.6-1-1.4-1.7-2 0.5 0.4 5.3 7.5 2.7 3.4-1.9-2.9-3.6-5.8-4.9-9 1 2.4 2 4.9 3.1 7.3-1.4-3.6-2.4-7.3-3-11.1 0.4 2.7 0.7 5.4 1.1 8.1-0.2-1.2-0.3-2.4-0.4-3.7-0.6-8.1-3-15.6-8.9-21.6-5.3-5.3-14-9.3-21.6-8.9-7.9 0.4-16.1 2.9-21.6 8.9-5.8 6.3-8.1 13.1-8.9 21.6-0.1 1.1-0.2 2.1-0.3 3.2 0.4-2.7 0.7-5.4 1.1-8.1-0.7 5.2-2 10.3-4.1 15.1 1-2.4 2-4.9 3.1-7.3-1.5 3.3-3.2 6.4-5.2 9.4-3.3 4.9 5.7-6.7 1.2-1.7-1.2 1.3-2.4 2.5-3.6 3.7-0.5 0.5-1.1 1-1.6 1.4-3.7 3.3 2.9-2.4 3.5-2.6-1.4 0.4-3 2.2-4.3 2.9-3 1.9-6.2 3.4-9.5 4.8 2.4-1 4.9-2 7.3-3.1-7.1 2.9-14.6 4.8-22.3 5.8 2.7-0.4 5.4-0.7 8.1-1.1-10.2 1.3-20.4 1.1-30.6-0.2 2.7 0.4 5.4 0.7 8.1 1.1-10.2-1.4-20.1-4-29.6-7.9 2.4 1 4.9 2 7.3 3.1-5.7-2.4-11.1-5.4-16.2-8.9-4.6-3.1 6.5 5.5 2.5 1.9-1.1-1-2.3-2-3.3-3.1-0.9-0.9-1.7-1.8-2.5-2.7-3.6-4 5.5 7.7 1.8 2.2-9-12.2-27.4-19.3-41.8-10-13.2 8.5-20.4 27.6-10.9 41.7z" fill="#C78B4C" p-id="62546"></path><path d="M379.1 378.6c15.9 0 31.2-14 30.5-30.5-0.7-16.5-13.4-30.5-30.5-30.5-15.9 0-31.2 14-30.5 30.5 0.7 16.5 13.4 30.5 30.5 30.5zM512.9 378.6c15.9 0 31.2-14 30.5-30.5-0.7-16.5-13.4-30.5-30.5-30.5-15.9 0-31.2 14-30.5 30.5 0.7 16.5 13.4 30.5 30.5 30.5zM646.7 378.6c15.9 0 31.2-14 30.5-30.5-0.7-16.5-13.4-30.5-30.5-30.5-15.9 0-31.2 14-30.5 30.5 0.8 16.5 13.4 30.5 30.5 30.5zM379.1 488.5c15.9 0 31.2-14 30.5-30.5-0.7-16.5-13.4-30.5-30.5-30.5-15.9 0-31.2 14-30.5 30.5 0.7 16.6 13.4 30.5 30.5 30.5zM512.9 488.5c15.9 0 31.2-14 30.5-30.5-0.7-16.5-13.4-30.5-30.5-30.5-15.9 0-31.2 14-30.5 30.5 0.7 16.6 13.4 30.5 30.5 30.5zM646.7 488.5c15.9 0 31.2-14 30.5-30.5-0.7-16.5-13.4-30.5-30.5-30.5-15.9 0-31.2 14-30.5 30.5 0.8 16.6 13.4 30.5 30.5 30.5zM379.1 598.4c15.9 0 31.2-14 30.5-30.5-0.7-16.5-13.4-30.5-30.5-30.5-15.9 0-31.2 14-30.5 30.5 0.7 16.6 13.4 30.5 30.5 30.5zM512.9 598.4c15.9 0 31.2-14 30.5-30.5-0.7-16.5-13.4-30.5-30.5-30.5-15.9 0-31.2 14-30.5 30.5 0.7 16.6 13.4 30.5 30.5 30.5zM646.7 598.4c15.9 0 31.2-14 30.5-30.5-0.7-16.5-13.4-30.5-30.5-30.5-15.9 0-31.2 14-30.5 30.5 0.8 16.6 13.4 30.5 30.5 30.5zM379.1 708.3c15.9 0 31.2-14 30.5-30.5-0.7-16.5-13.4-30.5-30.5-30.5-15.9 0-31.2 14-30.5 30.5 0.7 16.6 13.4 30.5 30.5 30.5zM512.9 708.3c15.9 0 31.2-14 30.5-30.5-0.7-16.5-13.4-30.5-30.5-30.5-15.9 0-31.2 14-30.5 30.5 0.7 16.6 13.4 30.5 30.5 30.5zM646.7 708.3c15.9 0 31.2-14 30.5-30.5-0.7-16.5-13.4-30.5-30.5-30.5-15.9 0-31.2 14-30.5 30.5 0.8 16.6 13.4 30.5 30.5 30.5z" fill="#FFFFFF" p-id="62547"></path><path d="M313 405.7c-0.8-59.3-1.6-118.6-2.5-177.9l-22.9 22.9c24.4-0.3 48.9-0.5 73.3-0.8 12-0.1 23.4-10.4 22.9-22.9-0.5-12.3-10-23-22.9-22.9-24.4 0.3-48.9 0.5-73.3 0.8-12.2 0.1-23 10.4-22.9 22.9 0.8 59.3 1.6 118.6 2.5 177.9 0.2 12 10.4 23.4 22.9 22.9 12.3-0.6 23.1-10.1 22.9-22.9z" fill="#FFFAF0" p-id="62548"></path></svg>